<mxfile host="app.diagrams.net" modified="2023-03-13T12:09:49.594Z" agent="5.0 (Windows NT 10.0; Win64; x64) AppleWebKit/537.36 (KHTML, like Gecko) Chrome/109.0.0.0 Safari/537.36 OPR/95.0.0.0" etag="2RIDhn2Jx-50_BcUrZsI" version="21.0.6" type="github">
  <diagram name="Página-1" id="VOKdSbn9IEY0f5_OMZX1">
    <mxGraphModel dx="3098" dy="2211" grid="1" gridSize="10" guides="1" tooltips="1" connect="1" arrows="1" fold="1" page="1" pageScale="1" pageWidth="827" pageHeight="1169" math="0" shadow="0">
      <root>
        <mxCell id="0" />
        <mxCell id="1" parent="0" />
        <mxCell id="Uw9PLSBqhCDiFDZ-sSaR-1" value="Local" style="whiteSpace=wrap;html=1;align=center;" vertex="1" parent="1">
          <mxGeometry x="100" y="120" width="100" height="40" as="geometry" />
        </mxCell>
        <mxCell id="Uw9PLSBqhCDiFDZ-sSaR-10" style="edgeStyle=orthogonalEdgeStyle;rounded=0;orthogonalLoop=1;jettySize=auto;html=1;entryX=1;entryY=0.5;entryDx=0;entryDy=0;" edge="1" parent="1" source="Uw9PLSBqhCDiFDZ-sSaR-3" target="Uw9PLSBqhCDiFDZ-sSaR-1">
          <mxGeometry relative="1" as="geometry" />
        </mxCell>
        <mxCell id="Uw9PLSBqhCDiFDZ-sSaR-3" value="Código Postal" style="ellipse;whiteSpace=wrap;html=1;align=center;" vertex="1" parent="1">
          <mxGeometry x="260" y="160" width="100" height="40" as="geometry" />
        </mxCell>
        <mxCell id="Uw9PLSBqhCDiFDZ-sSaR-8" value="" style="edgeStyle=orthogonalEdgeStyle;rounded=0;orthogonalLoop=1;jettySize=auto;html=1;" edge="1" parent="1" source="Uw9PLSBqhCDiFDZ-sSaR-4" target="Uw9PLSBqhCDiFDZ-sSaR-1">
          <mxGeometry relative="1" as="geometry" />
        </mxCell>
        <mxCell id="Uw9PLSBqhCDiFDZ-sSaR-4" value="Calle" style="ellipse;whiteSpace=wrap;html=1;align=center;" vertex="1" parent="1">
          <mxGeometry x="160" y="20" width="100" height="40" as="geometry" />
        </mxCell>
        <mxCell id="Uw9PLSBqhCDiFDZ-sSaR-9" style="edgeStyle=orthogonalEdgeStyle;rounded=0;orthogonalLoop=1;jettySize=auto;html=1;entryX=1;entryY=0.5;entryDx=0;entryDy=0;" edge="1" parent="1" source="Uw9PLSBqhCDiFDZ-sSaR-5" target="Uw9PLSBqhCDiFDZ-sSaR-1">
          <mxGeometry relative="1" as="geometry" />
        </mxCell>
        <mxCell id="Uw9PLSBqhCDiFDZ-sSaR-5" value="Número" style="ellipse;whiteSpace=wrap;html=1;align=center;" vertex="1" parent="1">
          <mxGeometry x="270" y="60" width="100" height="40" as="geometry" />
        </mxCell>
        <mxCell id="Uw9PLSBqhCDiFDZ-sSaR-7" style="edgeStyle=orthogonalEdgeStyle;rounded=0;orthogonalLoop=1;jettySize=auto;html=1;entryX=0.5;entryY=0;entryDx=0;entryDy=0;" edge="1" parent="1" source="Uw9PLSBqhCDiFDZ-sSaR-6" target="Uw9PLSBqhCDiFDZ-sSaR-1">
          <mxGeometry relative="1" as="geometry" />
        </mxCell>
        <mxCell id="Uw9PLSBqhCDiFDZ-sSaR-6" value="ID" style="ellipse;whiteSpace=wrap;html=1;align=center;fontStyle=4;" vertex="1" parent="1">
          <mxGeometry x="30" y="10" width="100" height="40" as="geometry" />
        </mxCell>
        <mxCell id="Uw9PLSBqhCDiFDZ-sSaR-12" style="edgeStyle=orthogonalEdgeStyle;rounded=0;orthogonalLoop=1;jettySize=auto;html=1;" edge="1" parent="1" source="Uw9PLSBqhCDiFDZ-sSaR-11" target="Uw9PLSBqhCDiFDZ-sSaR-1">
          <mxGeometry relative="1" as="geometry" />
        </mxCell>
        <mxCell id="Uw9PLSBqhCDiFDZ-sSaR-16" value="" style="edgeStyle=orthogonalEdgeStyle;rounded=0;orthogonalLoop=1;jettySize=auto;html=1;" edge="1" parent="1" source="Uw9PLSBqhCDiFDZ-sSaR-11" target="Uw9PLSBqhCDiFDZ-sSaR-15">
          <mxGeometry relative="1" as="geometry" />
        </mxCell>
        <mxCell id="Uw9PLSBqhCDiFDZ-sSaR-11" value="Está en" style="shape=rhombus;perimeter=rhombusPerimeter;whiteSpace=wrap;html=1;align=center;" vertex="1" parent="1">
          <mxGeometry x="-120" y="110" width="120" height="60" as="geometry" />
        </mxCell>
        <mxCell id="Uw9PLSBqhCDiFDZ-sSaR-14" value="" style="edgeStyle=orthogonalEdgeStyle;rounded=0;orthogonalLoop=1;jettySize=auto;html=1;" edge="1" parent="1" source="Uw9PLSBqhCDiFDZ-sSaR-13" target="Uw9PLSBqhCDiFDZ-sSaR-1">
          <mxGeometry relative="1" as="geometry" />
        </mxCell>
        <mxCell id="Uw9PLSBqhCDiFDZ-sSaR-13" value="Cafetería?" style="ellipse;whiteSpace=wrap;html=1;align=center;" vertex="1" parent="1">
          <mxGeometry x="180" y="210" width="100" height="40" as="geometry" />
        </mxCell>
        <mxCell id="Uw9PLSBqhCDiFDZ-sSaR-15" value="Población" style="whiteSpace=wrap;html=1;align=center;" vertex="1" parent="1">
          <mxGeometry x="-330" y="120" width="100" height="40" as="geometry" />
        </mxCell>
        <mxCell id="Uw9PLSBqhCDiFDZ-sSaR-18" style="edgeStyle=orthogonalEdgeStyle;rounded=0;orthogonalLoop=1;jettySize=auto;html=1;entryX=0.5;entryY=0;entryDx=0;entryDy=0;" edge="1" parent="1" source="Uw9PLSBqhCDiFDZ-sSaR-17" target="Uw9PLSBqhCDiFDZ-sSaR-15">
          <mxGeometry relative="1" as="geometry" />
        </mxCell>
        <mxCell id="Uw9PLSBqhCDiFDZ-sSaR-17" value="Código" style="ellipse;whiteSpace=wrap;html=1;align=center;fontStyle=4;" vertex="1" parent="1">
          <mxGeometry x="-430" y="30" width="100" height="40" as="geometry" />
        </mxCell>
        <mxCell id="Uw9PLSBqhCDiFDZ-sSaR-20" value="" style="edgeStyle=orthogonalEdgeStyle;rounded=0;orthogonalLoop=1;jettySize=auto;html=1;" edge="1" parent="1" source="Uw9PLSBqhCDiFDZ-sSaR-19" target="Uw9PLSBqhCDiFDZ-sSaR-15">
          <mxGeometry relative="1" as="geometry" />
        </mxCell>
        <mxCell id="Uw9PLSBqhCDiFDZ-sSaR-19" value="Nombre" style="ellipse;whiteSpace=wrap;html=1;align=center;" vertex="1" parent="1">
          <mxGeometry x="-270" y="30" width="100" height="40" as="geometry" />
        </mxCell>
        <mxCell id="Uw9PLSBqhCDiFDZ-sSaR-22" value="" style="edgeStyle=orthogonalEdgeStyle;rounded=0;orthogonalLoop=1;jettySize=auto;html=1;" edge="1" parent="1" source="Uw9PLSBqhCDiFDZ-sSaR-21" target="Uw9PLSBqhCDiFDZ-sSaR-15">
          <mxGeometry relative="1" as="geometry" />
        </mxCell>
        <mxCell id="Uw9PLSBqhCDiFDZ-sSaR-24" value="" style="edgeStyle=orthogonalEdgeStyle;rounded=0;orthogonalLoop=1;jettySize=auto;html=1;" edge="1" parent="1" source="Uw9PLSBqhCDiFDZ-sSaR-21" target="Uw9PLSBqhCDiFDZ-sSaR-23">
          <mxGeometry relative="1" as="geometry" />
        </mxCell>
        <mxCell id="Uw9PLSBqhCDiFDZ-sSaR-21" value="Pertenece" style="shape=rhombus;perimeter=rhombusPerimeter;whiteSpace=wrap;html=1;align=center;" vertex="1" parent="1">
          <mxGeometry x="-550" y="110" width="120" height="60" as="geometry" />
        </mxCell>
        <mxCell id="Uw9PLSBqhCDiFDZ-sSaR-23" value="Provincia" style="whiteSpace=wrap;html=1;align=center;" vertex="1" parent="1">
          <mxGeometry x="-750" y="120" width="100" height="40" as="geometry" />
        </mxCell>
        <mxCell id="Uw9PLSBqhCDiFDZ-sSaR-26" value="" style="edgeStyle=orthogonalEdgeStyle;rounded=0;orthogonalLoop=1;jettySize=auto;html=1;" edge="1" parent="1" source="Uw9PLSBqhCDiFDZ-sSaR-25" target="Uw9PLSBqhCDiFDZ-sSaR-23">
          <mxGeometry relative="1" as="geometry" />
        </mxCell>
        <mxCell id="Uw9PLSBqhCDiFDZ-sSaR-25" value="Código" style="ellipse;whiteSpace=wrap;html=1;align=center;fontStyle=4;" vertex="1" parent="1">
          <mxGeometry x="-820" y="30" width="100" height="40" as="geometry" />
        </mxCell>
        <mxCell id="Uw9PLSBqhCDiFDZ-sSaR-29" style="edgeStyle=orthogonalEdgeStyle;rounded=0;orthogonalLoop=1;jettySize=auto;html=1;entryX=0.5;entryY=0;entryDx=0;entryDy=0;" edge="1" parent="1" source="Uw9PLSBqhCDiFDZ-sSaR-28" target="Uw9PLSBqhCDiFDZ-sSaR-23">
          <mxGeometry relative="1" as="geometry" />
        </mxCell>
        <mxCell id="Uw9PLSBqhCDiFDZ-sSaR-28" value="Nombre" style="ellipse;whiteSpace=wrap;html=1;align=center;" vertex="1" parent="1">
          <mxGeometry x="-660" y="30" width="100" height="40" as="geometry" />
        </mxCell>
        <mxCell id="Uw9PLSBqhCDiFDZ-sSaR-30" value="(1,1)" style="text;strokeColor=none;fillColor=none;spacingLeft=4;spacingRight=4;overflow=hidden;rotatable=0;points=[[0,0.5],[1,0.5]];portConstraint=eastwest;fontSize=12;whiteSpace=wrap;html=1;" vertex="1" parent="1">
          <mxGeometry x="-650" y="110" width="40" height="30" as="geometry" />
        </mxCell>
        <mxCell id="Uw9PLSBqhCDiFDZ-sSaR-32" value="(0,n)" style="text;strokeColor=none;fillColor=none;spacingLeft=4;spacingRight=4;overflow=hidden;rotatable=0;points=[[0,0.5],[1,0.5]];portConstraint=eastwest;fontSize=12;whiteSpace=wrap;html=1;" vertex="1" parent="1">
          <mxGeometry x="-370" y="110" width="40" height="30" as="geometry" />
        </mxCell>
        <mxCell id="Uw9PLSBqhCDiFDZ-sSaR-34" value="(1,1)" style="text;strokeColor=none;fillColor=none;spacingLeft=4;spacingRight=4;overflow=hidden;rotatable=0;points=[[0,0.5],[1,0.5]];portConstraint=eastwest;fontSize=12;whiteSpace=wrap;html=1;" vertex="1" parent="1">
          <mxGeometry x="-230" y="110" width="40" height="30" as="geometry" />
        </mxCell>
        <mxCell id="Uw9PLSBqhCDiFDZ-sSaR-35" value="(0,n)" style="text;strokeColor=none;fillColor=none;spacingLeft=4;spacingRight=4;overflow=hidden;rotatable=0;points=[[0,0.5],[1,0.5]];portConstraint=eastwest;fontSize=12;whiteSpace=wrap;html=1;" vertex="1" parent="1">
          <mxGeometry x="60" y="110" width="40" height="30" as="geometry" />
        </mxCell>
        <mxCell id="Uw9PLSBqhCDiFDZ-sSaR-36" value="Producto" style="whiteSpace=wrap;html=1;align=center;" vertex="1" parent="1">
          <mxGeometry x="100" y="410" width="100" height="40" as="geometry" />
        </mxCell>
        <mxCell id="Uw9PLSBqhCDiFDZ-sSaR-38" style="edgeStyle=orthogonalEdgeStyle;rounded=0;orthogonalLoop=1;jettySize=auto;html=1;" edge="1" parent="1" source="Uw9PLSBqhCDiFDZ-sSaR-37" target="Uw9PLSBqhCDiFDZ-sSaR-1">
          <mxGeometry relative="1" as="geometry" />
        </mxCell>
        <mxCell id="Uw9PLSBqhCDiFDZ-sSaR-39" style="edgeStyle=orthogonalEdgeStyle;rounded=0;orthogonalLoop=1;jettySize=auto;html=1;" edge="1" parent="1" source="Uw9PLSBqhCDiFDZ-sSaR-37" target="Uw9PLSBqhCDiFDZ-sSaR-36">
          <mxGeometry relative="1" as="geometry" />
        </mxCell>
        <mxCell id="Uw9PLSBqhCDiFDZ-sSaR-37" value="Vende" style="shape=rhombus;perimeter=rhombusPerimeter;whiteSpace=wrap;html=1;align=center;" vertex="1" parent="1">
          <mxGeometry x="90" y="250" width="120" height="60" as="geometry" />
        </mxCell>
        <mxCell id="Uw9PLSBqhCDiFDZ-sSaR-40" value="(0,n)" style="text;strokeColor=none;fillColor=none;spacingLeft=4;spacingRight=4;overflow=hidden;rotatable=0;points=[[0,0.5],[1,0.5]];portConstraint=eastwest;fontSize=12;whiteSpace=wrap;html=1;" vertex="1" parent="1">
          <mxGeometry x="110" y="380" width="40" height="30" as="geometry" />
        </mxCell>
        <mxCell id="Uw9PLSBqhCDiFDZ-sSaR-41" value="(0,n)" style="text;strokeColor=none;fillColor=none;spacingLeft=4;spacingRight=4;overflow=hidden;rotatable=0;points=[[0,0.5],[1,0.5]];portConstraint=eastwest;fontSize=12;whiteSpace=wrap;html=1;" vertex="1" parent="1">
          <mxGeometry x="110" y="160" width="40" height="30" as="geometry" />
        </mxCell>
        <mxCell id="Uw9PLSBqhCDiFDZ-sSaR-50" style="edgeStyle=orthogonalEdgeStyle;rounded=0;orthogonalLoop=1;jettySize=auto;html=1;" edge="1" parent="1" source="Uw9PLSBqhCDiFDZ-sSaR-48" target="Uw9PLSBqhCDiFDZ-sSaR-36">
          <mxGeometry relative="1" as="geometry" />
        </mxCell>
        <mxCell id="Uw9PLSBqhCDiFDZ-sSaR-48" value="Descripción" style="ellipse;whiteSpace=wrap;html=1;align=center;" vertex="1" parent="1">
          <mxGeometry x="160" y="500" width="100" height="40" as="geometry" />
        </mxCell>
        <mxCell id="Uw9PLSBqhCDiFDZ-sSaR-55" style="edgeStyle=orthogonalEdgeStyle;rounded=0;orthogonalLoop=1;jettySize=auto;html=1;entryX=0.5;entryY=1;entryDx=0;entryDy=0;" edge="1" parent="1" source="Uw9PLSBqhCDiFDZ-sSaR-51" target="Uw9PLSBqhCDiFDZ-sSaR-36">
          <mxGeometry relative="1" as="geometry" />
        </mxCell>
        <mxCell id="Uw9PLSBqhCDiFDZ-sSaR-51" value="Precio base" style="ellipse;whiteSpace=wrap;html=1;align=center;" vertex="1" parent="1">
          <mxGeometry x="-20" y="470" width="100" height="40" as="geometry" />
        </mxCell>
        <mxCell id="Uw9PLSBqhCDiFDZ-sSaR-59" value="Categoría" style="whiteSpace=wrap;html=1;align=center;" vertex="1" parent="1">
          <mxGeometry x="100" y="680" width="100" height="40" as="geometry" />
        </mxCell>
        <mxCell id="Uw9PLSBqhCDiFDZ-sSaR-66" value="" style="edgeStyle=orthogonalEdgeStyle;rounded=0;orthogonalLoop=1;jettySize=auto;html=1;" edge="1" parent="1" source="Uw9PLSBqhCDiFDZ-sSaR-61" target="Uw9PLSBqhCDiFDZ-sSaR-59">
          <mxGeometry relative="1" as="geometry" />
        </mxCell>
        <mxCell id="Uw9PLSBqhCDiFDZ-sSaR-61" value="Código" style="ellipse;whiteSpace=wrap;html=1;align=center;fontStyle=4;" vertex="1" parent="1">
          <mxGeometry x="-40" y="660" width="100" height="40" as="geometry" />
        </mxCell>
        <mxCell id="Uw9PLSBqhCDiFDZ-sSaR-65" value="" style="edgeStyle=orthogonalEdgeStyle;rounded=0;orthogonalLoop=1;jettySize=auto;html=1;" edge="1" parent="1" source="Uw9PLSBqhCDiFDZ-sSaR-63" target="Uw9PLSBqhCDiFDZ-sSaR-59">
          <mxGeometry relative="1" as="geometry" />
        </mxCell>
        <mxCell id="Uw9PLSBqhCDiFDZ-sSaR-63" value="Descripción" style="ellipse;whiteSpace=wrap;html=1;align=center;" vertex="1" parent="1">
          <mxGeometry x="-40" y="720" width="100" height="40" as="geometry" />
        </mxCell>
        <mxCell id="Uw9PLSBqhCDiFDZ-sSaR-67" value="" style="edgeStyle=orthogonalEdgeStyle;rounded=0;orthogonalLoop=1;jettySize=auto;html=1;" edge="1" parent="1" source="Uw9PLSBqhCDiFDZ-sSaR-64" target="Uw9PLSBqhCDiFDZ-sSaR-59">
          <mxGeometry relative="1" as="geometry" />
        </mxCell>
        <mxCell id="Uw9PLSBqhCDiFDZ-sSaR-64" value="Tipo de producto" style="ellipse;whiteSpace=wrap;html=1;align=center;" vertex="1" parent="1">
          <mxGeometry x="290" y="660" width="100" height="40" as="geometry" />
        </mxCell>
        <mxCell id="Uw9PLSBqhCDiFDZ-sSaR-68" value="(1,1)" style="text;strokeColor=none;fillColor=none;spacingLeft=4;spacingRight=4;overflow=hidden;rotatable=0;points=[[0,0.5],[1,0.5]];portConstraint=eastwest;fontSize=12;whiteSpace=wrap;html=1;" vertex="1" parent="1">
          <mxGeometry x="150" y="650" width="40" height="30" as="geometry" />
        </mxCell>
        <mxCell id="Uw9PLSBqhCDiFDZ-sSaR-69" value="(0,n)" style="text;strokeColor=none;fillColor=none;spacingLeft=4;spacingRight=4;overflow=hidden;rotatable=0;points=[[0,0.5],[1,0.5]];portConstraint=eastwest;fontSize=12;whiteSpace=wrap;html=1;" vertex="1" parent="1">
          <mxGeometry x="150" y="450" width="40" height="30" as="geometry" />
        </mxCell>
        <mxCell id="Uw9PLSBqhCDiFDZ-sSaR-71" style="edgeStyle=orthogonalEdgeStyle;rounded=0;orthogonalLoop=1;jettySize=auto;html=1;" edge="1" parent="1" source="Uw9PLSBqhCDiFDZ-sSaR-70" target="Uw9PLSBqhCDiFDZ-sSaR-36">
          <mxGeometry relative="1" as="geometry" />
        </mxCell>
        <mxCell id="Uw9PLSBqhCDiFDZ-sSaR-73" value="" style="edgeStyle=orthogonalEdgeStyle;rounded=0;orthogonalLoop=1;jettySize=auto;html=1;" edge="1" parent="1" source="Uw9PLSBqhCDiFDZ-sSaR-70" target="Uw9PLSBqhCDiFDZ-sSaR-72">
          <mxGeometry relative="1" as="geometry" />
        </mxCell>
        <mxCell id="Uw9PLSBqhCDiFDZ-sSaR-86" value="" style="edgeStyle=orthogonalEdgeStyle;rounded=0;orthogonalLoop=1;jettySize=auto;html=1;" edge="1" parent="1" source="Uw9PLSBqhCDiFDZ-sSaR-70" target="Uw9PLSBqhCDiFDZ-sSaR-85">
          <mxGeometry relative="1" as="geometry" />
        </mxCell>
        <mxCell id="Uw9PLSBqhCDiFDZ-sSaR-70" value="Tiene" style="shape=rhombus;perimeter=rhombusPerimeter;whiteSpace=wrap;html=1;align=center;" vertex="1" parent="1">
          <mxGeometry x="-160" y="400" width="120" height="60" as="geometry" />
        </mxCell>
        <mxCell id="Uw9PLSBqhCDiFDZ-sSaR-72" value="Ingrediente" style="whiteSpace=wrap;html=1;align=center;" vertex="1" parent="1">
          <mxGeometry x="-360" y="410" width="100" height="40" as="geometry" />
        </mxCell>
        <mxCell id="Uw9PLSBqhCDiFDZ-sSaR-75" value="" style="edgeStyle=orthogonalEdgeStyle;rounded=0;orthogonalLoop=1;jettySize=auto;html=1;" edge="1" parent="1" source="Uw9PLSBqhCDiFDZ-sSaR-74" target="Uw9PLSBqhCDiFDZ-sSaR-70">
          <mxGeometry relative="1" as="geometry" />
        </mxCell>
        <mxCell id="Uw9PLSBqhCDiFDZ-sSaR-74" value="Cantidad" style="ellipse;whiteSpace=wrap;html=1;align=center;" vertex="1" parent="1">
          <mxGeometry x="-160" y="310" width="100" height="40" as="geometry" />
        </mxCell>
        <mxCell id="Uw9PLSBqhCDiFDZ-sSaR-82" style="edgeStyle=orthogonalEdgeStyle;rounded=0;orthogonalLoop=1;jettySize=auto;html=1;entryX=0;entryY=0.5;entryDx=0;entryDy=0;" edge="1" parent="1" source="Uw9PLSBqhCDiFDZ-sSaR-76" target="Uw9PLSBqhCDiFDZ-sSaR-72">
          <mxGeometry relative="1" as="geometry" />
        </mxCell>
        <mxCell id="Uw9PLSBqhCDiFDZ-sSaR-76" value="Código" style="ellipse;whiteSpace=wrap;html=1;align=center;fontStyle=4;" vertex="1" parent="1">
          <mxGeometry x="-510" y="360" width="100" height="40" as="geometry" />
        </mxCell>
        <mxCell id="Uw9PLSBqhCDiFDZ-sSaR-80" value="" style="edgeStyle=orthogonalEdgeStyle;rounded=0;orthogonalLoop=1;jettySize=auto;html=1;" edge="1" parent="1" source="Uw9PLSBqhCDiFDZ-sSaR-77" target="Uw9PLSBqhCDiFDZ-sSaR-72">
          <mxGeometry relative="1" as="geometry" />
        </mxCell>
        <mxCell id="Uw9PLSBqhCDiFDZ-sSaR-77" value="Nombre" style="ellipse;whiteSpace=wrap;html=1;align=center;" vertex="1" parent="1">
          <mxGeometry x="-420" y="320" width="100" height="40" as="geometry" />
        </mxCell>
        <mxCell id="Uw9PLSBqhCDiFDZ-sSaR-79" value="" style="edgeStyle=orthogonalEdgeStyle;rounded=0;orthogonalLoop=1;jettySize=auto;html=1;" edge="1" parent="1" source="Uw9PLSBqhCDiFDZ-sSaR-78" target="Uw9PLSBqhCDiFDZ-sSaR-72">
          <mxGeometry relative="1" as="geometry" />
        </mxCell>
        <mxCell id="Uw9PLSBqhCDiFDZ-sSaR-78" value="Descripción" style="ellipse;whiteSpace=wrap;html=1;align=center;" vertex="1" parent="1">
          <mxGeometry x="-290" y="320" width="100" height="40" as="geometry" />
        </mxCell>
        <mxCell id="Uw9PLSBqhCDiFDZ-sSaR-83" value="(0,n)" style="text;strokeColor=none;fillColor=none;spacingLeft=4;spacingRight=4;overflow=hidden;rotatable=0;points=[[0,0.5],[1,0.5]];portConstraint=eastwest;fontSize=12;whiteSpace=wrap;html=1;" vertex="1" parent="1">
          <mxGeometry x="60" y="400" width="40" height="30" as="geometry" />
        </mxCell>
        <mxCell id="Uw9PLSBqhCDiFDZ-sSaR-84" value="(1,n)" style="text;strokeColor=none;fillColor=none;spacingLeft=4;spacingRight=4;overflow=hidden;rotatable=0;points=[[0,0.5],[1,0.5]];portConstraint=eastwest;fontSize=12;whiteSpace=wrap;html=1;" vertex="1" parent="1">
          <mxGeometry x="-260" y="400" width="40" height="30" as="geometry" />
        </mxCell>
        <mxCell id="Uw9PLSBqhCDiFDZ-sSaR-85" value="Modo de cocinado" style="whiteSpace=wrap;html=1;align=center;" vertex="1" parent="1">
          <mxGeometry x="-150" y="570" width="100" height="40" as="geometry" />
        </mxCell>
        <mxCell id="Uw9PLSBqhCDiFDZ-sSaR-88" value="" style="edgeStyle=orthogonalEdgeStyle;rounded=0;orthogonalLoop=1;jettySize=auto;html=1;" edge="1" parent="1" source="Uw9PLSBqhCDiFDZ-sSaR-87" target="Uw9PLSBqhCDiFDZ-sSaR-85">
          <mxGeometry relative="1" as="geometry" />
        </mxCell>
        <mxCell id="Uw9PLSBqhCDiFDZ-sSaR-87" value="Código" style="ellipse;whiteSpace=wrap;html=1;align=center;fontStyle=4;" vertex="1" parent="1">
          <mxGeometry x="-290" y="530" width="100" height="40" as="geometry" />
        </mxCell>
        <mxCell id="Uw9PLSBqhCDiFDZ-sSaR-90" value="" style="edgeStyle=orthogonalEdgeStyle;rounded=0;orthogonalLoop=1;jettySize=auto;html=1;" edge="1" parent="1" source="Uw9PLSBqhCDiFDZ-sSaR-89" target="Uw9PLSBqhCDiFDZ-sSaR-85">
          <mxGeometry relative="1" as="geometry" />
        </mxCell>
        <mxCell id="Uw9PLSBqhCDiFDZ-sSaR-89" value="Descripción" style="ellipse;whiteSpace=wrap;html=1;align=center;" vertex="1" parent="1">
          <mxGeometry x="-290" y="610" width="100" height="40" as="geometry" />
        </mxCell>
        <mxCell id="Uw9PLSBqhCDiFDZ-sSaR-91" value="(1,n)" style="text;strokeColor=none;fillColor=none;spacingLeft=4;spacingRight=4;overflow=hidden;rotatable=0;points=[[0,0.5],[1,0.5]];portConstraint=eastwest;fontSize=12;whiteSpace=wrap;html=1;" vertex="1" parent="1">
          <mxGeometry x="-100" y="540" width="40" height="30" as="geometry" />
        </mxCell>
        <mxCell id="Uw9PLSBqhCDiFDZ-sSaR-92" value="&quot;Un producto contiene uno o varios ingredientes&quot;, por eso el 1,n en Ingrediente, pero esto implica que un producto y un modo de cocinado tengan mínimo 1 ingrediente, es decir cada producto tiene mínimo 1 ingrediente para cada modo de cocinado, no lo pondría así" style="shape=note;size=20;whiteSpace=wrap;html=1;" vertex="1" parent="1">
          <mxGeometry x="-500" y="460" width="150" height="210" as="geometry" />
        </mxCell>
        <mxCell id="Uw9PLSBqhCDiFDZ-sSaR-94" value="" style="edgeStyle=orthogonalEdgeStyle;rounded=0;orthogonalLoop=1;jettySize=auto;html=1;" edge="1" parent="1" source="Uw9PLSBqhCDiFDZ-sSaR-93" target="Uw9PLSBqhCDiFDZ-sSaR-36">
          <mxGeometry relative="1" as="geometry" />
        </mxCell>
        <mxCell id="Uw9PLSBqhCDiFDZ-sSaR-95" value="" style="edgeStyle=orthogonalEdgeStyle;rounded=0;orthogonalLoop=1;jettySize=auto;html=1;" edge="1" parent="1" source="Uw9PLSBqhCDiFDZ-sSaR-93" target="Uw9PLSBqhCDiFDZ-sSaR-59">
          <mxGeometry relative="1" as="geometry" />
        </mxCell>
        <mxCell id="Uw9PLSBqhCDiFDZ-sSaR-93" value="Pertenece" style="shape=rhombus;perimeter=rhombusPerimeter;whiteSpace=wrap;html=1;align=center;" vertex="1" parent="1">
          <mxGeometry x="90" y="535" width="120" height="60" as="geometry" />
        </mxCell>
        <mxCell id="Uw9PLSBqhCDiFDZ-sSaR-98" style="edgeStyle=orthogonalEdgeStyle;rounded=0;orthogonalLoop=1;jettySize=auto;html=1;" edge="1" parent="1" source="Uw9PLSBqhCDiFDZ-sSaR-96" target="Uw9PLSBqhCDiFDZ-sSaR-36">
          <mxGeometry relative="1" as="geometry" />
        </mxCell>
        <mxCell id="Uw9PLSBqhCDiFDZ-sSaR-96" value="Nombre único" style="ellipse;whiteSpace=wrap;html=1;align=center;fontStyle=4;" vertex="1" parent="1">
          <mxGeometry x="240" y="430" width="100" height="40" as="geometry" />
        </mxCell>
        <mxCell id="Uw9PLSBqhCDiFDZ-sSaR-100" value="" style="edgeStyle=orthogonalEdgeStyle;rounded=0;orthogonalLoop=1;jettySize=auto;html=1;" edge="1" parent="1" source="Uw9PLSBqhCDiFDZ-sSaR-99" target="Uw9PLSBqhCDiFDZ-sSaR-37">
          <mxGeometry relative="1" as="geometry" />
        </mxCell>
        <mxCell id="Uw9PLSBqhCDiFDZ-sSaR-99" value="Código" style="ellipse;whiteSpace=wrap;html=1;align=center;fontStyle=4;" vertex="1" parent="1">
          <mxGeometry x="260" y="270" width="100" height="40" as="geometry" />
        </mxCell>
        <mxCell id="Uw9PLSBqhCDiFDZ-sSaR-121" style="edgeStyle=orthogonalEdgeStyle;rounded=0;orthogonalLoop=1;jettySize=auto;html=1;entryX=0.5;entryY=0;entryDx=0;entryDy=0;" edge="1" parent="1" source="Uw9PLSBqhCDiFDZ-sSaR-101" target="Uw9PLSBqhCDiFDZ-sSaR-119">
          <mxGeometry relative="1" as="geometry" />
        </mxCell>
        <mxCell id="Uw9PLSBqhCDiFDZ-sSaR-101" value="Empleado" style="whiteSpace=wrap;html=1;align=center;" vertex="1" parent="1">
          <mxGeometry x="520" y="120" width="100" height="40" as="geometry" />
        </mxCell>
        <mxCell id="Uw9PLSBqhCDiFDZ-sSaR-103" value="" style="edgeStyle=orthogonalEdgeStyle;rounded=0;orthogonalLoop=1;jettySize=auto;html=1;" edge="1" parent="1" source="Uw9PLSBqhCDiFDZ-sSaR-102" target="Uw9PLSBqhCDiFDZ-sSaR-1">
          <mxGeometry relative="1" as="geometry" />
        </mxCell>
        <mxCell id="Uw9PLSBqhCDiFDZ-sSaR-104" value="" style="edgeStyle=orthogonalEdgeStyle;rounded=0;orthogonalLoop=1;jettySize=auto;html=1;" edge="1" parent="1" source="Uw9PLSBqhCDiFDZ-sSaR-102" target="Uw9PLSBqhCDiFDZ-sSaR-101">
          <mxGeometry relative="1" as="geometry" />
        </mxCell>
        <mxCell id="Uw9PLSBqhCDiFDZ-sSaR-128" style="edgeStyle=orthogonalEdgeStyle;rounded=0;orthogonalLoop=1;jettySize=auto;html=1;" edge="1" parent="1" source="Uw9PLSBqhCDiFDZ-sSaR-102" target="Uw9PLSBqhCDiFDZ-sSaR-127">
          <mxGeometry relative="1" as="geometry" />
        </mxCell>
        <mxCell id="Uw9PLSBqhCDiFDZ-sSaR-102" value="Trabaja" style="shape=rhombus;perimeter=rhombusPerimeter;whiteSpace=wrap;html=1;align=center;" vertex="1" parent="1">
          <mxGeometry x="320" y="110" width="120" height="60" as="geometry" />
        </mxCell>
        <mxCell id="Uw9PLSBqhCDiFDZ-sSaR-106" value="" style="edgeStyle=orthogonalEdgeStyle;rounded=0;orthogonalLoop=1;jettySize=auto;html=1;" edge="1" parent="1" source="Uw9PLSBqhCDiFDZ-sSaR-105" target="Uw9PLSBqhCDiFDZ-sSaR-101">
          <mxGeometry relative="1" as="geometry" />
        </mxCell>
        <mxCell id="Uw9PLSBqhCDiFDZ-sSaR-105" value="&lt;span style=&quot;border-bottom: 1px dotted&quot;&gt;Número Seguridad Social&lt;/span&gt;" style="ellipse;whiteSpace=wrap;html=1;align=center;" vertex="1" parent="1">
          <mxGeometry x="600" y="10" width="100" height="40" as="geometry" />
        </mxCell>
        <mxCell id="Uw9PLSBqhCDiFDZ-sSaR-108" value="" style="edgeStyle=orthogonalEdgeStyle;rounded=0;orthogonalLoop=1;jettySize=auto;html=1;" edge="1" parent="1" source="Uw9PLSBqhCDiFDZ-sSaR-107" target="Uw9PLSBqhCDiFDZ-sSaR-101">
          <mxGeometry relative="1" as="geometry" />
        </mxCell>
        <mxCell id="Uw9PLSBqhCDiFDZ-sSaR-107" value="Número empleado" style="ellipse;whiteSpace=wrap;html=1;align=center;fontStyle=4;" vertex="1" parent="1">
          <mxGeometry x="480" y="30" width="100" height="40" as="geometry" />
        </mxCell>
        <mxCell id="Uw9PLSBqhCDiFDZ-sSaR-110" value="" style="edgeStyle=orthogonalEdgeStyle;rounded=0;orthogonalLoop=1;jettySize=auto;html=1;" edge="1" parent="1" source="Uw9PLSBqhCDiFDZ-sSaR-109" target="Uw9PLSBqhCDiFDZ-sSaR-101">
          <mxGeometry relative="1" as="geometry" />
        </mxCell>
        <mxCell id="Uw9PLSBqhCDiFDZ-sSaR-109" value="&lt;span style=&quot;border-bottom: 1px dotted&quot;&gt;DNI&lt;/span&gt;" style="ellipse;whiteSpace=wrap;html=1;align=center;" vertex="1" parent="1">
          <mxGeometry x="740" y="40" width="100" height="40" as="geometry" />
        </mxCell>
        <mxCell id="Uw9PLSBqhCDiFDZ-sSaR-114" value="" style="edgeStyle=orthogonalEdgeStyle;rounded=0;orthogonalLoop=1;jettySize=auto;html=1;" edge="1" parent="1" source="Uw9PLSBqhCDiFDZ-sSaR-111" target="Uw9PLSBqhCDiFDZ-sSaR-101">
          <mxGeometry relative="1" as="geometry" />
        </mxCell>
        <mxCell id="Uw9PLSBqhCDiFDZ-sSaR-111" value="Nombre" style="ellipse;whiteSpace=wrap;html=1;align=center;" vertex="1" parent="1">
          <mxGeometry x="690" y="80" width="100" height="40" as="geometry" />
        </mxCell>
        <mxCell id="Uw9PLSBqhCDiFDZ-sSaR-115" style="edgeStyle=orthogonalEdgeStyle;rounded=0;orthogonalLoop=1;jettySize=auto;html=1;entryX=0.5;entryY=1;entryDx=0;entryDy=0;" edge="1" parent="1" source="Uw9PLSBqhCDiFDZ-sSaR-112" target="Uw9PLSBqhCDiFDZ-sSaR-101">
          <mxGeometry relative="1" as="geometry" />
        </mxCell>
        <mxCell id="Uw9PLSBqhCDiFDZ-sSaR-112" value="Primer apellido" style="ellipse;whiteSpace=wrap;html=1;align=center;" vertex="1" parent="1">
          <mxGeometry x="690" y="150" width="100" height="40" as="geometry" />
        </mxCell>
        <mxCell id="Uw9PLSBqhCDiFDZ-sSaR-116" style="edgeStyle=orthogonalEdgeStyle;rounded=0;orthogonalLoop=1;jettySize=auto;html=1;entryX=0.5;entryY=1;entryDx=0;entryDy=0;" edge="1" parent="1" source="Uw9PLSBqhCDiFDZ-sSaR-113" target="Uw9PLSBqhCDiFDZ-sSaR-101">
          <mxGeometry relative="1" as="geometry" />
        </mxCell>
        <mxCell id="Uw9PLSBqhCDiFDZ-sSaR-113" value="Segundo apellido" style="ellipse;whiteSpace=wrap;html=1;align=center;" vertex="1" parent="1">
          <mxGeometry x="600" y="200" width="100" height="40" as="geometry" />
        </mxCell>
        <mxCell id="Uw9PLSBqhCDiFDZ-sSaR-118" value="" style="edgeStyle=orthogonalEdgeStyle;rounded=0;orthogonalLoop=1;jettySize=auto;html=1;" edge="1" parent="1" source="Uw9PLSBqhCDiFDZ-sSaR-117" target="Uw9PLSBqhCDiFDZ-sSaR-101">
          <mxGeometry relative="1" as="geometry" />
        </mxCell>
        <mxCell id="Uw9PLSBqhCDiFDZ-sSaR-117" value="Teléfono" style="ellipse;whiteSpace=wrap;html=1;align=center;" vertex="1" parent="1">
          <mxGeometry x="470" y="210" width="100" height="40" as="geometry" />
        </mxCell>
        <mxCell id="Uw9PLSBqhCDiFDZ-sSaR-122" style="edgeStyle=orthogonalEdgeStyle;rounded=0;orthogonalLoop=1;jettySize=auto;html=1;entryX=0.5;entryY=1;entryDx=0;entryDy=0;" edge="1" parent="1" source="Uw9PLSBqhCDiFDZ-sSaR-119" target="Uw9PLSBqhCDiFDZ-sSaR-101">
          <mxGeometry relative="1" as="geometry" />
        </mxCell>
        <mxCell id="Uw9PLSBqhCDiFDZ-sSaR-119" value="Supervisa" style="shape=rhombus;perimeter=rhombusPerimeter;whiteSpace=wrap;html=1;align=center;" vertex="1" parent="1">
          <mxGeometry x="790" y="250" width="120" height="60" as="geometry" />
        </mxCell>
        <mxCell id="Uw9PLSBqhCDiFDZ-sSaR-123" value="(0,n)" style="text;strokeColor=none;fillColor=none;spacingLeft=4;spacingRight=4;overflow=hidden;rotatable=0;points=[[0,0.5],[1,0.5]];portConstraint=eastwest;fontSize=12;whiteSpace=wrap;html=1;" vertex="1" parent="1">
          <mxGeometry x="620" y="110" width="40" height="30" as="geometry" />
        </mxCell>
        <mxCell id="Uw9PLSBqhCDiFDZ-sSaR-124" value="(1,1)" style="text;strokeColor=none;fillColor=none;spacingLeft=4;spacingRight=4;overflow=hidden;rotatable=0;points=[[0,0.5],[1,0.5]];portConstraint=eastwest;fontSize=12;whiteSpace=wrap;html=1;" vertex="1" parent="1">
          <mxGeometry x="570" y="160" width="40" height="30" as="geometry" />
        </mxCell>
        <mxCell id="Uw9PLSBqhCDiFDZ-sSaR-126" style="edgeStyle=orthogonalEdgeStyle;rounded=0;orthogonalLoop=1;jettySize=auto;html=1;" edge="1" parent="1" source="Uw9PLSBqhCDiFDZ-sSaR-125" target="Uw9PLSBqhCDiFDZ-sSaR-102">
          <mxGeometry relative="1" as="geometry" />
        </mxCell>
        <mxCell id="Uw9PLSBqhCDiFDZ-sSaR-125" value="Periodo" style="ellipse;whiteSpace=wrap;html=1;align=center;fontStyle=4;" vertex="1" parent="1">
          <mxGeometry x="410" y="260" width="100" height="40" as="geometry" />
        </mxCell>
        <mxCell id="Uw9PLSBqhCDiFDZ-sSaR-127" value="Turno" style="shape=ext;margin=3;double=1;whiteSpace=wrap;html=1;align=center;" vertex="1" parent="1">
          <mxGeometry x="330" y="-60" width="100" height="40" as="geometry" />
        </mxCell>
        <mxCell id="Uw9PLSBqhCDiFDZ-sSaR-132" value="" style="edgeStyle=orthogonalEdgeStyle;rounded=0;orthogonalLoop=1;jettySize=auto;html=1;" edge="1" parent="1" source="Uw9PLSBqhCDiFDZ-sSaR-131" target="Uw9PLSBqhCDiFDZ-sSaR-127">
          <mxGeometry relative="1" as="geometry" />
        </mxCell>
        <mxCell id="Uw9PLSBqhCDiFDZ-sSaR-131" value="Horas" style="ellipse;whiteSpace=wrap;html=1;align=center;" vertex="1" parent="1">
          <mxGeometry x="380" y="-140" width="100" height="40" as="geometry" />
        </mxCell>
        <mxCell id="Uw9PLSBqhCDiFDZ-sSaR-134" value="" style="edgeStyle=orthogonalEdgeStyle;rounded=0;orthogonalLoop=1;jettySize=auto;html=1;" edge="1" parent="1" source="Uw9PLSBqhCDiFDZ-sSaR-133" target="Uw9PLSBqhCDiFDZ-sSaR-127">
          <mxGeometry relative="1" as="geometry" />
        </mxCell>
        <mxCell id="Uw9PLSBqhCDiFDZ-sSaR-136" value="" style="edgeStyle=orthogonalEdgeStyle;rounded=0;orthogonalLoop=1;jettySize=auto;html=1;" edge="1" parent="1" source="Uw9PLSBqhCDiFDZ-sSaR-133" target="Uw9PLSBqhCDiFDZ-sSaR-135">
          <mxGeometry relative="1" as="geometry" />
        </mxCell>
        <mxCell id="Uw9PLSBqhCDiFDZ-sSaR-133" value="Realizan" style="shape=rhombus;perimeter=rhombusPerimeter;whiteSpace=wrap;html=1;align=center;" vertex="1" parent="1">
          <mxGeometry x="530" y="-70" width="120" height="60" as="geometry" />
        </mxCell>
        <mxCell id="Uw9PLSBqhCDiFDZ-sSaR-135" value="Tarea" style="whiteSpace=wrap;html=1;align=center;" vertex="1" parent="1">
          <mxGeometry x="740" y="-60" width="100" height="40" as="geometry" />
        </mxCell>
        <mxCell id="Uw9PLSBqhCDiFDZ-sSaR-138" value="" style="edgeStyle=orthogonalEdgeStyle;rounded=0;orthogonalLoop=1;jettySize=auto;html=1;" edge="1" parent="1" source="Uw9PLSBqhCDiFDZ-sSaR-137" target="Uw9PLSBqhCDiFDZ-sSaR-127">
          <mxGeometry relative="1" as="geometry" />
        </mxCell>
        <mxCell id="Uw9PLSBqhCDiFDZ-sSaR-137" value="Fecha inicio" style="ellipse;whiteSpace=wrap;html=1;align=center;fontStyle=4;" vertex="1" parent="1">
          <mxGeometry x="250" y="-140" width="100" height="40" as="geometry" />
        </mxCell>
        <mxCell id="Uw9PLSBqhCDiFDZ-sSaR-140" value="" style="edgeStyle=orthogonalEdgeStyle;rounded=0;orthogonalLoop=1;jettySize=auto;html=1;" edge="1" parent="1" source="Uw9PLSBqhCDiFDZ-sSaR-139" target="Uw9PLSBqhCDiFDZ-sSaR-135">
          <mxGeometry relative="1" as="geometry" />
        </mxCell>
        <mxCell id="Uw9PLSBqhCDiFDZ-sSaR-139" value="Descripción" style="ellipse;whiteSpace=wrap;html=1;align=center;" vertex="1" parent="1">
          <mxGeometry x="770" y="-140" width="100" height="40" as="geometry" />
        </mxCell>
        <mxCell id="Uw9PLSBqhCDiFDZ-sSaR-142" value="" style="edgeStyle=orthogonalEdgeStyle;rounded=0;orthogonalLoop=1;jettySize=auto;html=1;" edge="1" parent="1" source="Uw9PLSBqhCDiFDZ-sSaR-141" target="Uw9PLSBqhCDiFDZ-sSaR-135">
          <mxGeometry relative="1" as="geometry" />
        </mxCell>
        <mxCell id="Uw9PLSBqhCDiFDZ-sSaR-141" value="Coste/hora" style="ellipse;whiteSpace=wrap;html=1;align=center;" vertex="1" parent="1">
          <mxGeometry x="870" y="-10" width="100" height="40" as="geometry" />
        </mxCell>
        <mxCell id="Uw9PLSBqhCDiFDZ-sSaR-144" value="" style="edgeStyle=orthogonalEdgeStyle;rounded=0;orthogonalLoop=1;jettySize=auto;html=1;" edge="1" parent="1" source="Uw9PLSBqhCDiFDZ-sSaR-143" target="Uw9PLSBqhCDiFDZ-sSaR-135">
          <mxGeometry relative="1" as="geometry" />
        </mxCell>
        <mxCell id="Uw9PLSBqhCDiFDZ-sSaR-143" value="ID" style="ellipse;whiteSpace=wrap;html=1;align=center;fontStyle=4;" vertex="1" parent="1">
          <mxGeometry x="660" y="-150" width="100" height="40" as="geometry" />
        </mxCell>
        <mxCell id="Uw9PLSBqhCDiFDZ-sSaR-145" value="(1,n)" style="text;strokeColor=none;fillColor=none;spacingLeft=4;spacingRight=4;overflow=hidden;rotatable=0;points=[[0,0.5],[1,0.5]];portConstraint=eastwest;fontSize=12;whiteSpace=wrap;html=1;" vertex="1" parent="1">
          <mxGeometry x="700" y="-70" width="40" height="30" as="geometry" />
        </mxCell>
        <mxCell id="Uw9PLSBqhCDiFDZ-sSaR-146" value="(0,n)" style="text;strokeColor=none;fillColor=none;spacingLeft=4;spacingRight=4;overflow=hidden;rotatable=0;points=[[0,0.5],[1,0.5]];portConstraint=eastwest;fontSize=12;whiteSpace=wrap;html=1;" vertex="1" parent="1">
          <mxGeometry x="430" y="-70" width="40" height="30" as="geometry" />
        </mxCell>
        <mxCell id="Uw9PLSBqhCDiFDZ-sSaR-148" style="edgeStyle=orthogonalEdgeStyle;rounded=0;orthogonalLoop=1;jettySize=auto;html=1;" edge="1" parent="1" source="Uw9PLSBqhCDiFDZ-sSaR-147" target="Uw9PLSBqhCDiFDZ-sSaR-135">
          <mxGeometry relative="1" as="geometry" />
        </mxCell>
        <mxCell id="Uw9PLSBqhCDiFDZ-sSaR-150" value="" style="edgeStyle=orthogonalEdgeStyle;rounded=0;orthogonalLoop=1;jettySize=auto;html=1;" edge="1" parent="1" source="Uw9PLSBqhCDiFDZ-sSaR-147" target="Uw9PLSBqhCDiFDZ-sSaR-149">
          <mxGeometry relative="1" as="geometry" />
        </mxCell>
        <mxCell id="Uw9PLSBqhCDiFDZ-sSaR-147" value="Requiere" style="shape=rhombus;perimeter=rhombusPerimeter;whiteSpace=wrap;html=1;align=center;" vertex="1" parent="1">
          <mxGeometry x="990" y="-70" width="120" height="60" as="geometry" />
        </mxCell>
        <mxCell id="Uw9PLSBqhCDiFDZ-sSaR-149" value="Prerrequisito" style="whiteSpace=wrap;html=1;align=center;" vertex="1" parent="1">
          <mxGeometry x="1220" y="-60" width="100" height="40" as="geometry" />
        </mxCell>
        <mxCell id="Uw9PLSBqhCDiFDZ-sSaR-152" value="" style="edgeStyle=orthogonalEdgeStyle;rounded=0;orthogonalLoop=1;jettySize=auto;html=1;" edge="1" parent="1" source="Uw9PLSBqhCDiFDZ-sSaR-151" target="Uw9PLSBqhCDiFDZ-sSaR-149">
          <mxGeometry relative="1" as="geometry" />
        </mxCell>
        <mxCell id="Uw9PLSBqhCDiFDZ-sSaR-151" value="ID" style="ellipse;whiteSpace=wrap;html=1;align=center;fontStyle=4;" vertex="1" parent="1">
          <mxGeometry x="1160" y="-150" width="100" height="40" as="geometry" />
        </mxCell>
        <mxCell id="Uw9PLSBqhCDiFDZ-sSaR-153" value="(0,n)" style="text;strokeColor=none;fillColor=none;spacingLeft=4;spacingRight=4;overflow=hidden;rotatable=0;points=[[0,0.5],[1,0.5]];portConstraint=eastwest;fontSize=12;whiteSpace=wrap;html=1;" vertex="1" parent="1">
          <mxGeometry x="1180" y="-70" width="40" height="30" as="geometry" />
        </mxCell>
        <mxCell id="Uw9PLSBqhCDiFDZ-sSaR-154" value="(0,n)" style="text;strokeColor=none;fillColor=none;spacingLeft=4;spacingRight=4;overflow=hidden;rotatable=0;points=[[0,0.5],[1,0.5]];portConstraint=eastwest;fontSize=12;whiteSpace=wrap;html=1;" vertex="1" parent="1">
          <mxGeometry x="840" y="-70" width="40" height="30" as="geometry" />
        </mxCell>
      </root>
    </mxGraphModel>
  </diagram>
</mxfile>
